<mxfile host="app.diagrams.net" modified="2024-05-08T00:19:27.592Z" agent="Mozilla/5.0 (Windows NT 10.0; Win64; x64) AppleWebKit/537.36 (KHTML, like Gecko) Chrome/124.0.0.0 Safari/537.36" version="24.3.1" etag="3zaPdcqqrgRSsMcwocov" type="github">
  <diagram name="Сторінка-1" id="mzhUtcXBtSJSnnUb05UE">
    <mxGraphModel>
      <root>
        <mxCell id="0" />
        <mxCell id="1" parent="0" />
      </root>
    </mxGraphModel>
  </diagram>
</mxfile>
